<svg width="184" height="46" fill="none" xmlns="http://www.w3.org/2000/svg"><path d="M35.949 12.48c.992 0 1.866.208 2.624.624.757.405 1.349 1.035 1.776 1.888.437.853.656 1.952.656 3.296V26H36.22v-6.976c0-.917-.139-1.659-.416-2.224-.278-.565-.827-.848-1.648-.848-.491 0-.923.128-1.296.384a2.477 2.477 0 00-.864 1.072c-.203.448-.304.987-.304 1.616V26h-4.464v-6.976c0-.917-.155-1.659-.464-2.224-.299-.565-.832-.848-1.6-.848-.491 0-.923.128-1.296.384-.374.245-.662.597-.864 1.056-.192.448-.288.992-.288 1.632V26h-4.832V12.864h4.832v1.872c.128-.33.405-.667.832-1.008.437-.352.976-.645 1.616-.88a5.629 5.629 0 012.032-.368c.778 0 1.429.117 1.952.352.522.224.949.528 1.28.912.341.384.613.8.816 1.248.149-.384.442-.768.88-1.152.448-.395 1.002-.72 1.664-.976a6.016 6.016 0 012.16-.384zM53.71 26.384c-1.44 0-2.72-.293-3.84-.88a6.827 6.827 0 01-2.624-2.448c-.63-1.045-.944-2.24-.944-3.584 0-1.344.315-2.539.944-3.584a6.867 6.867 0 012.624-2.496c1.12-.608 2.4-.912 3.84-.912s2.71.304 3.808.912a6.662 6.662 0 012.576 2.496c.619 1.045.928 2.24.928 3.584 0 1.344-.31 2.539-.928 3.584-.619 1.035-1.477 1.85-2.576 2.448-1.099.587-2.368.88-3.808.88zm0-4c.555 0 1.035-.123 1.44-.368a2.48 2.48 0 00.944-1.04c.224-.448.336-.955.336-1.52 0-.576-.112-1.088-.336-1.536a2.59 2.59 0 00-.944-1.056c-.405-.256-.885-.384-1.44-.384-.554 0-1.04.128-1.456.384a2.706 2.706 0 00-.96 1.056c-.224.448-.336.96-.336 1.536 0 .565.112 1.072.336 1.52.235.448.555.795.96 1.04.416.245.902.368 1.456.368zm18.675 4c-1.269 0-2.373-.31-3.312-.928a6.421 6.421 0 01-2.192-2.512c-.512-1.056-.768-2.224-.768-3.504 0-1.28.256-2.443.768-3.488.523-1.056 1.254-1.899 2.192-2.528.939-.63 2.043-.944 3.312-.944.843 0 1.59.133 2.24.4.651.256 1.179.565 1.584.928.406.352.651.677.736.976v-10.8h4.864V26h-4.816v-2.128c-.202.395-.533.79-.992 1.184a5.859 5.859 0 01-1.616.944 5.18 5.18 0 01-2 .384zm1.488-3.824c.587 0 1.11-.133 1.568-.4a2.89 2.89 0 001.104-1.104c.267-.48.4-1.019.4-1.616 0-.597-.133-1.13-.4-1.6a2.859 2.859 0 00-1.104-1.12 2.97 2.97 0 00-1.568-.416 2.928 2.928 0 00-2.608 1.536c-.256.47-.384 1.003-.384 1.6 0 .597.128 1.136.384 1.616.267.47.624.837 1.072 1.104a3 3 0 001.536.4zM87.988 26V12.864h4.864V26h-4.864zm2.496-15.84a2.658 2.658 0 01-1.952-.8c-.533-.544-.8-1.19-.8-1.936 0-.747.267-1.392.8-1.936.544-.555 1.195-.832 1.952-.832.502 0 .96.128 1.376.384.416.245.752.576 1.008.992.256.416.384.88.384 1.392 0 .747-.272 1.392-.816 1.936a2.69 2.69 0 01-1.952.8zm26.983 2.32c.992 0 1.867.208 2.624.624.758.405 1.35 1.035 1.776 1.888.438.853.656 1.952.656 3.296V26h-4.784v-6.976c0-.917-.138-1.659-.416-2.224-.277-.565-.826-.848-1.648-.848-.49 0-.922.128-1.296.384a2.481 2.481 0 00-.864 1.072c-.202.448-.304.987-.304 1.616V26h-4.464v-6.976c0-.917-.154-1.659-.464-2.224-.298-.565-.832-.848-1.6-.848-.49 0-.922.128-1.296.384-.373.245-.661.597-.864 1.056-.192.448-.288.992-.288 1.632V26h-4.832V12.864h4.832v1.872c.128-.33.406-.667.832-1.008.438-.352.976-.645 1.616-.88a5.631 5.631 0 012.032-.368c.779 0 1.43.117 1.952.352.523.224.95.528 1.28.912.342.384.614.8.816 1.248.15-.384.443-.768.88-1.152.448-.395 1.003-.72 1.664-.976a6.016 6.016 0 012.16-.384zM138.733 26v-2.128c-.096.213-.341.523-.736.928-.384.405-.896.773-1.536 1.104-.64.32-1.387.48-2.24.48-1.28 0-2.4-.31-3.36-.928a6.452 6.452 0 01-2.24-2.512c-.533-1.056-.8-2.224-.8-3.504 0-1.28.267-2.443.8-3.488a6.424 6.424 0 012.24-2.528c.96-.63 2.08-.944 3.36-.944.821 0 1.541.133 2.16.4.619.256 1.12.565 1.504.928.384.352.651.677.8.976v-1.92h4.832V26h-4.784zm-6.144-6.56c0 .597.139 1.136.416 1.616.277.47.645.837 1.104 1.104.469.267.987.4 1.552.4.587 0 1.104-.133 1.552-.4.448-.267.8-.635 1.056-1.104.267-.48.4-1.019.4-1.616 0-.597-.133-1.13-.4-1.6a2.815 2.815 0 00-1.056-1.12c-.448-.277-.965-.416-1.552-.416-.565 0-1.083.139-1.552.416-.459.267-.827.64-1.104 1.12a3.088 3.088 0 00-.416 1.6zM154.667 26h-4.88V3.984h4.88V26z" fill="#404040"/><mask id="a" fill="#fff"><path fill-rule="evenodd" clip-rule="evenodd" d="M164.75 26a5 5 0 10-1.563-.25c.022-.08.045-.158.07-.236-.581-.676-.582-1.333-.582-1.664.003-.894.271-1.714.956-2.308.682-.592 1.757-.942 3.336-.942h1.393c.07 0 .125.056.125.125v.701c-.088 1.53-.509 2.607-1.201 3.3-.694.693-1.642.985-2.743.985h-1.047a.134.134 0 01-.035-.005 4.375 4.375 0 00-.032.117 5 5 0 001.323.177zm-.799-1.365a3.788 3.788 0 00-.41.82l.006.006h.994c1.058 0 1.933-.28 2.566-.912.633-.634 1.042-1.64 1.128-3.133v-.566h-1.268c-1.547 0-2.553.344-3.172.88-.616.535-.868 1.277-.87 2.12 0 .294 0 .824.431 1.389a3.96 3.96 0 01.387-.742c.405-.608.988-1.1 1.789-1.456a.125.125 0 11.101.229c-.761.338-1.306.8-1.682 1.365z"/></mask><path fill-rule="evenodd" clip-rule="evenodd" d="M164.75 26a5 5 0 10-1.563-.25c.022-.08.045-.158.07-.236-.581-.676-.582-1.333-.582-1.664.003-.894.271-1.714.956-2.308.682-.592 1.757-.942 3.336-.942h1.393c.07 0 .125.056.125.125v.701c-.088 1.53-.509 2.607-1.201 3.3-.694.693-1.642.985-2.743.985h-1.047a.134.134 0 01-.035-.005 4.375 4.375 0 00-.032.117 5 5 0 001.323.177zm-.799-1.365a3.788 3.788 0 00-.41.82l.006.006h.994c1.058 0 1.933-.28 2.566-.912.633-.634 1.042-1.64 1.128-3.133v-.566h-1.268c-1.547 0-2.553.344-3.172.88-.616.535-.868 1.277-.87 2.12 0 .294 0 .824.431 1.389a3.96 3.96 0 01.387-.742c.405-.608.988-1.1 1.789-1.456a.125.125 0 11.101.229c-.761.338-1.306.8-1.682 1.365z" fill="#748C70"/><path d="M163.187 25.75l-.078.238.251.083.069-.255-.242-.065zm.07-.236l.238.077.043-.134-.091-.106-.19.163zm-.582-1.664h-.25.25zm0 0l-.25-.001h.25zm.956-2.308l.164.189-.164-.19zm4.854-.116l-.013.25.263.015v-.265h-.25zm0 0l.014-.25-.249-.013-.014.25.249.013zm-1.201 3.3l.176.176-.176-.177zm-3.825.98l.071-.24-.24-.07-.07.24.239.07zm-.032.117l-.242-.064-.064.24.24.065.066-.241zm.114-.368l-.235-.085-.053.146.108.112.18-.173zm.41-.82l-.208-.138.208.138zm-.404.826l-.18.173.073.077h.107v-.25zm3.56-.912l.177.176-.177-.176zm1.128-3.133l.25.014v-.014h-.25zm0-.566h.25v-.25h-.25v.25zm-4.44.88l-.164-.188.164.189zm-.87 2.12h-.25.25zm0 0h.25-.25zm.431 1.389l-.199.151.268.352.163-.411-.232-.092zm.387-.742l-.208-.139.208.139zm1.789-1.456l.101.229-.101-.229zm.101.229l-.101-.229.101.229zM169.5 21a4.75 4.75 0 01-4.75 4.75v.5A5.25 5.25 0 00170 21h-.5zm-4.75-4.75A4.75 4.75 0 01169.5 21h.5a5.25 5.25 0 00-5.25-5.25v.5zM160 21a4.75 4.75 0 014.75-4.75v-.5A5.25 5.25 0 00159.5 21h.5zm3.265 4.513A4.753 4.753 0 01160 21h-.5a5.25 5.25 0 003.609 4.988l.156-.475zm.164.303c.02-.076.042-.151.066-.225l-.476-.154a5.076 5.076 0 00-.073.25l.483.129zm.018-.465c-.521-.606-.522-1.186-.522-1.501h-.5c0 .346 0 1.08.643 1.827l.379-.326zm-.522-1.5v-.001h-.5.5zm0 0c.002-.844.254-1.586.87-2.12l-.327-.378c-.754.654-1.04 1.552-1.043 2.496l.5.001zm.87-2.12c.619-.537 1.625-.881 3.172-.881v-.5c-1.611 0-2.755.357-3.499 1.003l.327.378zm3.172-.881h1.393v-.5h-1.393v.5zm1.393 0a.125.125 0 01-.125-.125h.5a.374.374 0 00-.375-.375v.5zm-.125-.125v.694h.5v-.694h-.5zm0 .694v.007h.5v-.007h-.5zm.264-.242l-.028.499h.001l.027-.5zm-.263.235c-.086 1.495-.495 2.502-1.129 3.137l.353.353c.752-.751 1.185-1.895 1.275-3.461l-.499-.029zm-1.129 3.137c-.633.633-1.508.912-2.566.912v.5c1.144 0 2.165-.304 2.919-1.059l-.353-.353zm-2.566.912h-1.047v.5h1.047v-.5zm-1.047 0c.012 0 .024.002.036.005l-.141.48a.38.38 0 00.105.015v-.5zm-.274.174l-.035.124.483.128.031-.11-.479-.142zm1.53.115c-.436 0-.857-.059-1.257-.168l-.132.482c.442.121.908.186 1.389.186v-.5zm-.974-.21c.1-.277.227-.532.383-.766l-.416-.277c-.181.27-.325.562-.437.873l.47.17zm-.049-.252l-.005-.006-.361.346.006.006.36-.346zm.814-.077h-.994v.5h.994v-.5zm2.389-.84c-.572.573-1.374.84-2.389.84v.5c1.101 0 2.049-.292 2.743-.986l-.354-.353zm1.056-2.97c-.084 1.457-.481 2.396-1.056 2.97l.354.354c.692-.692 1.113-1.767 1.201-3.295l-.499-.029zm-.001-.551v.566h.5v-.566h-.5zm-1.018.25h1.268v-.5h-1.268v.5zm-3.008.82c.556-.483 1.493-.82 3.008-.82v-.5c-1.579 0-2.654.35-3.336.942l.328.378zm-.784 1.93c.002-.792.237-1.456.784-1.93l-.328-.378c-.684.594-.953 1.414-.956 2.307l.5.002zm0 0h-.5.5zm.38 1.237c-.379-.497-.38-.955-.38-1.236h-.5c0 .305-.001.906.482 1.54l.398-.304zm-.02-.729a4.228 4.228 0 00-.412.789l.465.184a3.69 3.69 0 01.363-.696l-.416-.277zm1.895-1.545c-.839.373-1.462.894-1.895 1.545l.416.277c.376-.564.921-1.027 1.682-1.365l-.203-.457zm.495.19a.375.375 0 00-.495-.19l.203.457a.125.125 0 01-.165-.064l.457-.203zm-.19.495a.375.375 0 00.19-.495l-.457.203a.125.125 0 01.064-.165l.203.457zm-1.576 1.276c.347-.521.853-.955 1.576-1.276l-.203-.457c-.801.356-1.384.848-1.789 1.456l.416.277z" fill="#fff" mask="url(#a)"/><path d="M56.67 37.925L55.623 41h-.9l-1.114-4.105h.925l.745 3.155 1.03-3.075h.72l1.02 3.075.75-3.155h.93L58.614 41h-.9l-1.046-3.075zm6.816 3.195c-.424 0-.8-.095-1.13-.285a2.082 2.082 0 01-.77-.77 2.188 2.188 0 01-.28-1.105c0-.41.093-.78.28-1.11.186-.33.443-.592.77-.785.33-.193.706-.29 1.13-.29.42 0 .791.097 1.114.29.327.193.582.455.766.785.183.33.275.7.275 1.11 0 .41-.092.778-.276 1.105-.183.323-.438.58-.764.77a2.16 2.16 0 01-1.115.285zm0-.745c.266 0 .498-.062.694-.185.2-.123.355-.292.465-.505.11-.217.166-.46.166-.73 0-.27-.056-.513-.166-.73a1.255 1.255 0 00-1.16-.705c-.27 0-.505.063-.705.19-.2.127-.356.298-.47.515a1.59 1.59 0 00-.165.73c0 .27.055.513.165.73a1.3 1.3 0 00.47.505c.2.123.435.185.706.185zm9.044-3.6c.303 0 .563.067.78.2.217.13.382.33.495.6.117.27.175.615.175 1.035V41h-.86v-2.215c0-.443-.062-.777-.185-1-.123-.223-.348-.335-.675-.335a.953.953 0 00-.5.145 1.063 1.063 0 00-.39.435c-.1.197-.15.448-.15.755V41h-.81v-2.215c0-.443-.077-.777-.23-1a.738.738 0 00-.645-.335.961.961 0 00-.5.14.979.979 0 00-.375.43c-.097.197-.145.452-.145.765V41h-.865v-4.105h.865v.63a.91.91 0 01.235-.33c.123-.117.28-.215.47-.295.193-.083.408-.125.645-.125.247 0 .453.05.62.15.167.1.298.223.395.37.097.143.163.282.2.415.047-.143.137-.287.27-.43a1.53 1.53 0 01.505-.36c.203-.097.428-.145.675-.145zm4.198 2.35c.004.247.057.472.16.675.103.203.257.365.46.485.207.12.46.18.76.18.254 0 .468-.037.645-.11a1.424 1.424 0 00.685-.555l.425.525c-.11.16-.245.3-.405.42-.156.12-.348.212-.575.275-.227.067-.503.1-.83.1-.44 0-.822-.093-1.145-.28a1.93 1.93 0 01-.74-.785 2.488 2.488 0 01-.26-1.155c0-.4.082-.76.245-1.08.163-.323.4-.578.71-.765.314-.187.69-.28 1.13-.28.404 0 .754.085 1.05.255.3.167.532.403.695.71.167.307.25.673.25 1.1a3.69 3.69 0 01-.015.285h-3.245zm2.43-.655a1.135 1.135 0 00-.12-.45 1.025 1.025 0 00-.36-.42c-.166-.117-.391-.175-.675-.175-.293 0-.53.057-.71.17a1.075 1.075 0 00-.39.415c-.083.16-.132.313-.145.46h2.4zm5.086-1.695c.27 0 .531.057.785.17.257.113.467.293.63.54.166.243.25.562.25.955V41h-.88v-2.39c0-.407-.095-.702-.285-.885-.19-.187-.435-.28-.735-.28a1.07 1.07 0 00-.57.17 1.31 1.31 0 00-.62 1.12V41h-.87v-4.105h.87v.73c.03-.113.111-.237.245-.37a1.705 1.705 0 011.18-.48zm9.228 3.625c.26 0 .47-.042.63-.125a1.7 1.7 0 00.3-.18l.425.625c-.034.03-.114.078-.24.145a2.503 2.503 0 01-.48.175c-.194.053-.414.08-.66.08-.377 0-.727-.083-1.05-.25a2.015 2.015 0 01-.785-.74c-.197-.323-.295-.718-.295-1.185 0-.47.098-.865.295-1.185.2-.323.461-.568.785-.735.323-.167.673-.25 1.05-.25.243 0 .46.03.65.09.19.057.346.12.47.19.123.07.205.123.245.16l-.43.625a1.27 1.27 0 00-.155-.12 1.134 1.134 0 00-.3-.155 1.318 1.318 0 00-1.575.6 1.49 1.49 0 00-.195.78c0 .303.065.565.195.785.13.217.295.383.495.5.203.113.411.17.625.17zm4.12.6h-.875v-6.88h.875V41zm4.153.12c-.423 0-.8-.095-1.13-.285a2.086 2.086 0 01-.77-.77 2.187 2.187 0 01-.28-1.105c0-.41.094-.78.28-1.11a2.1 2.1 0 01.77-.785c.33-.193.707-.29 1.13-.29.42 0 .792.097 1.115.29.327.193.582.455.765.785.184.33.275.7.275 1.11 0 .41-.091.778-.275 1.105a2.04 2.04 0 01-.765.77c-.323.19-.695.285-1.115.285zm0-.745c.267 0 .499-.062.695-.185.2-.123.355-.292.465-.505.11-.217.165-.46.165-.73 0-.27-.055-.513-.165-.73a1.253 1.253 0 00-1.16-.705c-.27 0-.505.063-.705.19-.2.127-.356.298-.47.515a1.59 1.59 0 00-.165.73c0 .27.055.513.165.73a1.3 1.3 0 00.47.505c.2.123.435.185.705.185zm3.77-3.48h.805V35.21h.865v1.685h1.055v.745h-1.055v2.03c0 .24.042.417.125.53.087.113.202.17.345.17a.528.528 0 00.295-.07.706.706 0 00.125-.095l.345.64a1.58 1.58 0 01-.495.22 1.866 1.866 0 01-.48.055c-.32 0-.588-.097-.805-.29-.213-.197-.32-.507-.32-.93v-2.26h-.805v-.745zm6.985-.12c.27 0 .532.057.785.17.257.113.467.293.63.54.167.243.25.562.25.955V41h-.88v-2.39c0-.407-.093-.702-.28-.885-.183-.187-.425-.28-.725-.28-.2 0-.391.057-.575.17-.183.11-.335.263-.455.46a1.258 1.258 0 00-.175.66V41h-.88v-6.88h.88v3.505c.03-.113.11-.237.24-.37a1.72 1.72 0 011.185-.48zM116.436 41v-4.105h.87V41h-.87zm.445-5.51a.564.564 0 01-.57-.57.56.56 0 01.165-.405.555.555 0 01.69-.09.61.61 0 01.215.21.51.51 0 01.08.285.55.55 0 01-.17.405.567.567 0 01-.41.165zm5.05 1.285c.27 0 .532.057.785.17.257.113.467.293.63.54.167.243.25.562.25.955V41h-.88v-2.39c0-.407-.095-.702-.285-.885-.19-.187-.435-.28-.735-.28-.196 0-.386.057-.57.17a1.313 1.313 0 00-.62 1.12V41h-.87v-4.105h.87v.73c.03-.113.112-.237.245-.37a1.72 1.72 0 011.18-.48zm5.763 6.42c-.323 0-.617-.033-.88-.1a2.41 2.41 0 01-.685-.285 1.603 1.603 0 01-.465-.425l.57-.545c.063.087.148.178.255.275.11.1.258.185.445.255s.43.105.73.105c.293 0 .542-.063.745-.19.203-.123.358-.292.465-.505.107-.213.16-.453.16-.72v-.135h.85v.19c0 .453-.098.833-.295 1.14-.193.31-.455.543-.785.7-.33.16-.7.24-1.11.24zm1.34-2.195v-.8c-.027.083-.105.198-.235.345a1.83 1.83 0 01-.525.4c-.22.117-.48.175-.78.175-.38 0-.725-.09-1.035-.27a1.995 1.995 0 01-.735-.755c-.18-.327-.27-.708-.27-1.145 0-.437.09-.817.27-1.14a1.985 1.985 0 011.77-1.035c.297 0 .553.053.77.16.22.107.395.23.525.37.133.14.212.26.235.36v-.77h.86V41h-.85zm-2.72-2.05c0 .297.065.553.195.77.13.217.298.385.505.505.21.117.433.175.67.175.253 0 .48-.06.68-.18.2-.12.358-.288.475-.505.117-.22.175-.475.175-.765 0-.29-.058-.543-.175-.76a1.28 1.28 0 00-1.155-.695c-.237 0-.46.06-.67.18-.207.12-.375.288-.505.505-.13.217-.195.473-.195.77z" fill="#404040"/></svg>